<svg class="drop-shadow" id="Layer_1" data-name="Layer 1" xmlns="http://www.w3.org/2000/svg" xmlns:xlink="http://www.w3.org/1999/xlink" viewBox="0 0 1375 540"><defs><style>.cls-1,.cls-8{fill:none;}.cls-2,.cls-4{fill:#fcfbfb;}.cls-2,.cls-8{stroke:#000;}.cls-2{stroke-width:12px; filter:drop-shadow(9px 9px 0px #000;)}.cls-3{fill:#ff95b0;}.cls-5{fill:#cd99e6;}.cls-6{fill:#ffcb46;}.cls-7{clip-path:url(#clip-path);}.cls-8{stroke-width:6px;.drop-shadow{box-shadow:9px 9px 0px #000;}}</style><clipPath id="clip-path"><rect class="cls-1" x="936.55" y="115.51" width="298.75" height="298.72"/></clipPath></defs><rect class="cls-2" x="44.42" y="53.85" width="1271.73" height="419.3"/><path class="cls-3" d="M195.43,292.8q19.47,0,34,7.89a54.17,54.17,0,0,1,22.63,21.75q7.89,14,7.9,32.1,0,17.9-8.07,31.92a56.46,56.46,0,0,1-22.63,22.1q-14.56,7.89-33.86,7.89H146.49V292.8Z"/><path class="cls-4" d="M192.8,386.11q15.09,0,23.68-8.24t8.6-23.33q0-15.26-8.6-23.5-8.59-8.43-23.68-8.42H180.88v63.49Z"/><polygon class="cls-5" points="309.87 320.34 309.87 340.51 349.33 340.51 349.33 366.64 309.87 366.64 309.87 388.92 354.6 388.92 354.6 416.45 275.48 416.45 275.48 292.8 354.6 292.8 354.6 320.34 309.87 320.34"/><path class="cls-6" d="M418.24,417.68q-21.57,0-35.43-10.17Q369,397.16,367.9,378h36.66q.53,6.49,3.86,9.47a14,14,0,0,0,16.31.71,8,8,0,0,0,3.16-6.67q0-5.43-5.09-8.42t-16.49-6.66a163.69,163.69,0,0,1-19.64-7.72,40,40,0,0,1-13-11.05q-5.44-7.36-5.44-19.12,0-11.93,6-20.34a36.71,36.71,0,0,1,16.49-13,61.43,61.43,0,0,1,23.86-4.39q21.57,0,34.38,10.18,13,10,13.86,28.23H425.43c-.11-3.74-1.28-6.54-3.5-8.42a12,12,0,0,0-8.25-2.8,8.91,8.91,0,0,0-6.31,2.28,9.1,9.1,0,0,0,.17,12.63,29.91,29.91,0,0,0,6.84,4.38q4,1.75,11.93,4.56a133.61,133.61,0,0,1,19.3,8.07,37.23,37.23,0,0,1,13.15,11q5.63,7,5.61,17.89a35.91,35.91,0,0,1-5.61,19.82,37.17,37.17,0,0,1-16,13.86Q432.45,417.69,418.24,417.68Z"/><rect class="cls-3" x="480.36" y="292.8" width="34.38" height="123.65"/><path class="cls-5" d="M613.25,333.49A19.77,19.77,0,0,0,605,326a26.1,26.1,0,0,0-12.11-2.63q-13,0-20.52,8.42Q565,340.16,565,354.37q0,16,7.9,24.38Q581,387,596.24,387q18.06,0,25.78-16.31H587.47V346h64.2v33.32a62.13,62.13,0,0,1-11.93,18.42,60.55,60.55,0,0,1-19.65,14.2q-11.93,5.44-27.19,5.44-18.58,0-33-7.89a57,57,0,0,1-22.1-22.28q-7.73-14.39-7.72-32.79,0-18.24,7.72-32.45a55.5,55.5,0,0,1,22.1-22.28q14.21-8.07,32.8-8.07,23.32,0,38.59,11.23t18.94,30.69Z"/><polygon class="cls-6" points="781.62 416.45 747.24 416.45 701.46 347.35 701.46 416.45 667.08 416.45 667.08 292.8 701.46 292.8 747.24 362.78 747.24 292.8 781.62 292.8 781.62 416.45"/><path class="cls-3" d="M847.86,417.68q-21.57,0-35.43-10.17Q798.57,397.16,797.52,378h36.66q.52,6.49,3.86,9.47a14,14,0,0,0,16.31.71,8,8,0,0,0,3.16-6.67q0-5.43-5.09-8.42t-16.49-6.66a164.37,164.37,0,0,1-19.64-7.72,40,40,0,0,1-13-11.05q-5.44-7.36-5.44-19.12,0-11.93,6-20.34a36.71,36.71,0,0,1,16.49-13,61.43,61.43,0,0,1,23.86-4.39q21.57,0,34.38,10.18,13,10,13.86,28.23H855.05c-.11-3.74-1.28-6.54-3.5-8.42a12,12,0,0,0-8.25-2.8,8.91,8.91,0,0,0-6.31,2.28,9.1,9.1,0,0,0,.17,12.63,29.91,29.91,0,0,0,6.84,4.38q4.05,1.75,11.93,4.56a133.61,133.61,0,0,1,19.3,8.07,37.23,37.23,0,0,1,13.15,11q5.63,7,5.62,17.89a35.92,35.92,0,0,1-5.62,19.82,37.17,37.17,0,0,1-16,13.86Q862.07,417.69,847.86,417.68Z"/><polygon class="cls-6" points="227.87 227.03 179.75 227.03 172.04 249.79 139.17 249.79 185.81 120.89 222.17 120.89 268.82 249.79 235.58 249.79 227.87 227.03"/><polygon class="cls-4" points="219.79 202.79 203.81 155.6 188.02 202.79 219.79 202.79"/><polygon class="cls-3" points="398.33 249.79 366.93 249.79 314.41 170.29 314.41 249.79 283.01 249.79 283.01 120.89 314.41 120.89 366.93 200.77 366.93 120.89 398.33 120.89 398.33 249.79"/><path class="cls-5" d="M469.39,120.9q20.39,0,35.63,8.07a57,57,0,0,1,23.5,22.77q8.44,14.5,8.45,33.6,0,18.91-8.45,33.61a56.63,56.63,0,0,1-23.69,22.76q-15.24,8.08-35.44,8.08h-48.3V120.9Z"/><path class="cls-4" d="M467.37,222.62q17.82,0,27.73-9.73T505,185.34q0-17.81-9.92-27.72t-27.73-9.92H452.5v74.92Z"/><path class="cls-6" d="M620.26,249.79l-26.81-48.65h-7.53v48.65h-31.4V120.9h52.7q15.24,0,25.89,5.32a36.46,36.46,0,0,1,16.16,14.69,40.24,40.24,0,0,1,5.33,20.56,38.06,38.06,0,0,1-7.35,23q-7.15,10.09-21.3,14.32l29.75,51Z"/><path class="cls-4" d="M585.92,178.92h19.46q8.64,0,12.86-4.23,4.41-4.22,4.41-11.93,0-7.35-4.41-11.57Q614,147,605.38,147H585.92Z"/><polygon class="cls-3" points="705.71 146.05 705.71 172.12 747.76 172.12 747.76 196.36 705.71 196.36 705.71 224.64 753.27 224.64 753.27 249.79 674.31 249.79 674.31 120.89 753.27 120.89 753.27 146.05 705.71 146.05"/><polygon class="cls-5" points="853.91 227.03 805.79 227.03 798.08 249.79 765.21 249.79 811.85 120.89 848.21 120.89 894.86 249.79 861.62 249.79 853.91 227.03"/><polygon class="cls-4" points="845.83 202.79 829.85 155.6 814.06 202.79 845.83 202.79"/><g class="cls-7"><path class="cls-6" d="M1058.5,209.25h-37.88v37.82h37.88Z"/><path class="cls-6" d="M1151.23,209.25h-37.88v37.82h37.88Z"/><path class="cls-6" d="M1012.22,153.24H974.34v37.82h37.88Z"/><path class="cls-6" d="M1012.22,338.59H974.34V376.4h37.88Z"/><path class="cls-6" d="M974.43,191.24H936.55V338.59h37.88Z"/><path class="cls-6" d="M1159.63,115.51H1012v37.82h147.59Z"/><path class="cls-6" d="M1197.51,153.24h-37.89v37.82h37.89Z"/><path class="cls-6" d="M1197.51,338.59h-37.89V376.4h37.89Z"/><path class="cls-6" d="M1235.29,191.24h-37.88V338.59h37.88Z"/><path class="cls-6" d="M1159.89,376.4H1012.3v37.83h147.59Z"/><path class="cls-6" d="M1031.63,294.34h-26.91v26.87h26.91Z"/><path class="cls-6" d="M1140.34,321.19h-109.1V348h109.1Z"/><path class="cls-6" d="M1167.11,294.34H1140.2v26.87h26.91Z"/></g><path class="cls-8" d="M186.34,294.93q19.47,0,34,7.89A54.17,54.17,0,0,1,243,324.57q7.89,14,7.89,32.1,0,17.9-8.06,31.92a56.53,56.53,0,0,1-22.63,22.1q-14.56,7.89-33.86,7.89H137.4V294.93Z"/><path class="cls-8" d="M183.71,388.24q15.09,0,23.68-8.24t8.6-23.33q0-15.26-8.6-23.5-8.59-8.43-23.68-8.42H171.78v63.49Z"/><polygon class="cls-8" points="300.77 322.47 300.77 342.64 340.24 342.64 340.24 368.77 300.77 368.77 300.77 391.05 345.5 391.05 345.5 418.58 266.39 418.58 266.39 294.93 345.5 294.93 345.5 322.47 300.77 322.47"/><path class="cls-8" d="M409.15,419.81q-21.57,0-35.43-10.17-13.86-10.35-14.91-29.47h36.66q.52,6.49,3.86,9.47a14,14,0,0,0,16.31.7,8,8,0,0,0,3.16-6.66q0-5.44-5.09-8.42t-16.49-6.66a165.4,165.4,0,0,1-19.64-7.72,40,40,0,0,1-13-11.05q-5.44-7.36-5.44-19.12,0-11.93,6-20.35a36.69,36.69,0,0,1,16.49-13A61.43,61.43,0,0,1,405.47,293q21.57,0,34.38,10.17,13,10,13.86,28.24H416.34c-.11-3.74-1.28-6.54-3.5-8.42a12,12,0,0,0-8.25-2.8,8.89,8.89,0,0,0-6.31,2.28,9.1,9.1,0,0,0,.17,12.63,29.91,29.91,0,0,0,6.84,4.38q4,1.75,11.93,4.56a133.61,133.61,0,0,1,19.3,8.07,37.23,37.23,0,0,1,13.15,11.05q5.63,7,5.61,17.89a35.91,35.91,0,0,1-5.61,19.82,37.22,37.22,0,0,1-16,13.85Q423.36,419.81,409.15,419.81Z"/><rect class="cls-8" x="471.27" y="294.93" width="34.38" height="123.65"/><path class="cls-8" d="M604.16,335.62a19.71,19.71,0,0,0-8.24-7.54,26.1,26.1,0,0,0-12.11-2.63q-13,0-20.52,8.42-7.37,8.42-7.37,22.62,0,16,7.9,24.38,8.07,8.25,23.33,8.25,18.06,0,25.78-16.31H578.38V348.07h64.2V381.4a62.13,62.13,0,0,1-11.93,18.42A60.66,60.66,0,0,1,611,414q-11.93,5.44-27.19,5.44-18.59,0-33-7.89a57,57,0,0,1-22.1-22.28Q521,374.91,521,356.49q0-18.24,7.72-32.44a55.43,55.43,0,0,1,22.1-22.28q14.2-8.07,32.8-8.07,23.33,0,38.59,11.23t18.94,30.69Z"/><polygon class="cls-8" points="772.53 418.58 738.15 418.58 692.37 349.48 692.37 418.58 657.99 418.58 657.99 294.93 692.37 294.93 738.15 364.91 738.15 294.93 772.53 294.93 772.53 418.58"/><path class="cls-8" d="M838.77,419.81q-21.57,0-35.43-10.17-13.86-10.35-14.91-29.47h36.66q.52,6.49,3.86,9.47a14,14,0,0,0,16.31.7,8,8,0,0,0,3.16-6.66q0-5.44-5.09-8.42t-16.49-6.66a166.09,166.09,0,0,1-19.64-7.72,40,40,0,0,1-13-11.05q-5.44-7.36-5.44-19.12,0-11.93,6-20.35a36.69,36.69,0,0,1,16.49-13A61.43,61.43,0,0,1,835.09,293q21.57,0,34.38,10.17,13,10,13.86,28.24H846c-.11-3.74-1.28-6.54-3.5-8.42a12,12,0,0,0-8.25-2.8,8.91,8.91,0,0,0-6.31,2.28,9.1,9.1,0,0,0,.17,12.63,29.91,29.91,0,0,0,6.84,4.38q4,1.75,11.93,4.56a133.61,133.61,0,0,1,19.3,8.07,37.23,37.23,0,0,1,13.15,11.05q5.63,7,5.62,17.89a35.92,35.92,0,0,1-5.62,19.82,37.22,37.22,0,0,1-16,13.85Q853,419.81,838.77,419.81Z"/><polygon class="cls-8" points="218.78 229.15 170.66 229.15 162.95 251.92 130.08 251.92 176.72 123.02 213.08 123.02 259.73 251.92 226.49 251.92 218.78 229.15"/><polygon class="cls-8" points="210.69 204.92 194.72 157.73 178.93 204.92 210.69 204.92"/><polygon class="cls-8" points="389.24 251.92 357.84 251.92 305.32 172.42 305.32 251.92 273.92 251.92 273.92 123.02 305.32 123.02 357.84 202.9 357.84 123.02 389.24 123.02 389.24 251.92"/><path class="cls-8" d="M460.3,123q20.38,0,35.63,8.08a57,57,0,0,1,23.5,22.77q8.45,14.5,8.45,33.6,0,18.92-8.45,33.61a56.63,56.63,0,0,1-23.69,22.76q-15.24,8.08-35.44,8.08H412V123Z"/><path class="cls-8" d="M458.28,224.75q17.82,0,27.73-9.73t9.92-27.55q0-17.81-9.92-27.72t-27.73-9.92H443.41v74.92Z"/><path class="cls-8" d="M611.17,251.92l-26.81-48.66h-7.53v48.66h-31.4V123h52.7q15.24,0,25.89,5.33A36.46,36.46,0,0,1,640.18,143a40.22,40.22,0,0,1,5.33,20.56,38.06,38.06,0,0,1-7.35,23q-7.15,10.09-21.3,14.32l29.75,51Z"/><path class="cls-8" d="M576.83,181.05h19.46q8.64,0,12.86-4.23,4.41-4.22,4.4-11.93,0-7.35-4.4-11.57-4.23-4.22-12.86-4.22H576.83Z"/><polygon class="cls-8" points="696.62 148.18 696.62 174.25 738.67 174.25 738.67 198.49 696.62 198.49 696.62 226.77 744.18 226.77 744.18 251.92 665.22 251.92 665.22 123.02 744.18 123.02 744.18 148.18 696.62 148.18"/><polygon class="cls-8" points="844.82 229.15 796.7 229.15 788.99 251.92 756.12 251.92 802.76 123.02 839.12 123.02 885.77 251.92 852.53 251.92 844.82 229.15"/><polygon class="cls-8" points="836.74 204.92 820.76 157.73 804.97 204.92 836.74 204.92"/></svg>