<svg id="Layer_1" data-name="Layer 1" xmlns="http://www.w3.org/2000/svg" xmlns:xlink="http://www.w3.org/1999/xlink" viewBox="0 0 1283.48 432.37"><defs><style>.cls-1,.cls-8{fill:none;}.cls-2,.cls-4{fill:#fcfbfb;}.cls-2,.cls-8{stroke:#000;}.cls-2{stroke-width:5%;}.cls-3{fill:#ff95b0;}.cls-5{fill:#cd99e6;}.cls-6{fill:#ffcb46;}.cls-7{clip-path:url(#clip-path);}.cls-8{stroke-width:6px;}</style><clipPath id="clip-path"><rect class="cls-1" x="898.28" y="67.5" width="298.75" height="298.72"/></clipPath></defs><rect class="cls-2" x="6.15" y="5.84" width="1271.73" height="419.3"/><path class="cls-3" d="M157.16,244.79q19.47,0,34,7.89a54,54,0,0,1,22.63,21.75q7.89,14,7.9,32.1,0,17.89-8.07,31.92A56.42,56.42,0,0,1,191,360.55q-14.56,7.89-33.86,7.89H108.22V244.79Z"/><path class="cls-4" d="M154.53,338.1q15.09,0,23.68-8.24t8.6-23.33q0-15.27-8.6-23.5-8.6-8.43-23.68-8.42H142.61V338.1Z"/><polygon class="cls-5" points="271.6 272.33 271.6 292.5 311.06 292.5 311.06 318.63 271.6 318.63 271.6 340.91 316.33 340.91 316.33 368.44 237.21 368.44 237.21 244.79 316.33 244.79 316.33 272.33 271.6 272.33"/><path class="cls-6" d="M380,369.67q-21.57,0-35.43-10.17Q330.73,349.15,329.63,330h36.66q.52,6.48,3.86,9.47a14,14,0,0,0,16.31.71,8,8,0,0,0,3.16-6.67q0-5.43-5.09-8.42T368,318.42a164.65,164.65,0,0,1-19.64-7.72,40.11,40.11,0,0,1-13-11.05Q330,292.29,330,280.53q0-11.94,6-20.34a36.66,36.66,0,0,1,16.49-13,61.27,61.27,0,0,1,23.86-4.39q21.57,0,34.38,10.18,13,10,13.86,28.23H387.16c-.11-3.74-1.28-6.54-3.5-8.42a11.94,11.94,0,0,0-8.25-2.8,8.89,8.89,0,0,0-6.31,2.28,9.1,9.1,0,0,0,.17,12.63,30.28,30.28,0,0,0,6.84,4.38q4,1.74,11.93,4.56a133.09,133.09,0,0,1,19.3,8.07,37.2,37.2,0,0,1,13.15,11q5.63,7,5.61,17.89a35.85,35.85,0,0,1-5.61,19.82,37.16,37.16,0,0,1-16,13.86Q394.19,369.67,380,369.67Z"/><rect class="cls-3" x="442.09" y="244.79" width="34.38" height="123.65"/><path class="cls-5" d="M575,285.48a19.7,19.7,0,0,0-8.25-7.49,26,26,0,0,0-12.11-2.63q-13,0-20.52,8.42-7.36,8.37-7.37,22.58,0,16,7.9,24.38Q542.73,339,558,339q18.06,0,25.78-16.31H549.2V298h64.2v33.32a62.12,62.12,0,0,1-11.93,18.42,60.48,60.48,0,0,1-19.65,14.2,65,65,0,0,1-27.19,5.44q-18.58,0-33-7.89a57.1,57.1,0,0,1-22.1-22.28q-7.72-14.4-7.72-32.79T499.53,274a55.43,55.43,0,0,1,22.1-22.28q14.21-8.07,32.8-8.07,23.33,0,38.59,11.23T612,285.53Z"/><polygon class="cls-6" points="743.35 368.44 708.97 368.44 663.19 299.34 663.19 368.44 628.81 368.44 628.81 244.79 663.19 244.79 708.97 314.77 708.97 244.79 743.35 244.79 743.35 368.44"/><path class="cls-3" d="M809.59,369.67q-21.57,0-35.43-10.17Q760.3,349.15,759.25,330h36.66q.52,6.48,3.86,9.47a14,14,0,0,0,16.31.71,8,8,0,0,0,3.16-6.67q0-5.43-5.09-8.42t-16.49-6.66A165.32,165.32,0,0,1,778,310.7a40.11,40.11,0,0,1-13-11.05q-5.44-7.36-5.44-19.12,0-11.94,6-20.34a36.66,36.66,0,0,1,16.49-13,61.27,61.27,0,0,1,23.86-4.39q21.57,0,34.38,10.18,13,10,13.86,28.23H816.78c-.11-3.74-1.28-6.54-3.5-8.42A11.94,11.94,0,0,0,805,270a8.89,8.89,0,0,0-6.31,2.28,9.1,9.1,0,0,0,.17,12.63,30.28,30.28,0,0,0,6.84,4.38q4,1.74,11.93,4.56a133.09,133.09,0,0,1,19.3,8.07,37.2,37.2,0,0,1,13.15,11q5.63,7,5.62,17.89a35.94,35.94,0,0,1-5.62,19.82,37.16,37.16,0,0,1-16,13.86Q823.81,369.67,809.59,369.67Z"/><polygon class="cls-6" points="189.6 179.02 141.48 179.02 133.77 201.78 100.9 201.78 147.54 72.88 183.9 72.88 230.55 201.78 197.31 201.78 189.6 179.02"/><polygon class="cls-4" points="181.52 154.78 165.54 107.59 149.75 154.78 181.52 154.78"/><polygon class="cls-3" points="360.06 201.78 328.66 201.78 276.14 122.28 276.14 201.78 244.74 201.78 244.74 72.88 276.14 72.88 328.66 152.76 328.66 72.88 360.06 72.88 360.06 201.78"/><path class="cls-5" d="M431.12,72.89q20.38,0,35.63,8.07a57,57,0,0,1,23.5,22.77q8.44,14.49,8.45,33.6,0,18.9-8.45,33.61a56.63,56.63,0,0,1-23.69,22.76q-15.24,8.07-35.44,8.08h-48.3V72.89Z"/><path class="cls-4" d="M429.1,174.61q17.82,0,27.73-9.73t9.9-27.55q0-17.82-9.92-27.72t-27.73-9.92H414.23v74.92Z"/><path class="cls-6" d="M582,201.78l-26.81-48.65h-7.53v48.65h-31.4V72.89H569q15.24,0,25.89,5.32A36.43,36.43,0,0,1,611,92.9a40.15,40.15,0,0,1,5.33,20.56,38.09,38.09,0,0,1-7.35,23q-7.15,10.08-21.3,14.32l29.75,51Z"/><path class="cls-4" d="M547.65,130.91h19.46q8.64,0,12.86-4.23,4.41-4.23,4.41-11.93,0-7.35-4.41-11.57Q575.72,99,567.11,99H547.65Z"/><polygon class="cls-3" points="667.44 98.04 667.44 124.11 709.49 124.11 709.49 148.35 667.44 148.35 667.44 176.63 715 176.63 715 201.78 636.04 201.78 636.04 72.88 715 72.88 715 98.04 667.44 98.04"/><polygon class="cls-5" points="815.64 179.02 767.52 179.02 759.81 201.78 726.94 201.78 773.58 72.88 809.94 72.88 856.59 201.78 823.35 201.78 815.64 179.02"/><polygon class="cls-4" points="807.56 154.78 791.58 107.59 775.79 154.78 807.56 154.78"/><g class="cls-7"><path class="cls-6" d="M1020.23,161.24H982.35v37.82h37.88Z"/><path class="cls-6" d="M1113,161.24h-37.88v37.82H1113Z"/><path class="cls-6" d="M974,105.23H936.07v37.82H974Z"/><path class="cls-6" d="M974,290.58H936.07v37.81H974Z"/><path class="cls-6" d="M936.16,143.23H898.28V290.58h37.88Z"/><path class="cls-6" d="M1121.36,67.5H973.73v37.82h147.59Z"/><path class="cls-6" d="M1159.24,105.23h-37.89v37.82h37.89Z"/><path class="cls-6" d="M1159.24,290.58h-37.89v37.81h37.89Z"/><path class="cls-6" d="M1197,143.23h-37.88V290.58H1197Z"/><path class="cls-6" d="M1121.62,328.39H974v37.83h147.59Z"/><path class="cls-6" d="M993.36,246.33H966.45V273.2h26.91Z"/><path class="cls-6" d="M1102.07,273.18H993V300h109.1Z"/><path class="cls-6" d="M1128.84,246.33h-26.91V273.2h26.91Z"/></g><path class="cls-8" d="M148.07,246.92q19.47,0,34,7.89a54.12,54.12,0,0,1,22.66,21.75q7.89,14,7.89,32.1,0,17.89-8.06,31.92a56.61,56.61,0,0,1-22.63,22.1q-14.56,7.89-33.86,7.89H99.13V246.92Z"/><path class="cls-8" d="M145.44,340.23q15.09,0,23.68-8.24t8.6-23.33q0-15.27-8.6-23.5-8.6-8.43-23.68-8.42H133.51v63.49Z"/><polygon class="cls-8" points="262.5 274.46 262.5 294.63 301.97 294.63 301.97 320.76 262.5 320.76 262.5 343.04 307.23 343.04 307.23 370.57 228.12 370.57 228.12 246.92 307.23 246.92 307.23 274.46 262.5 274.46"/><path class="cls-8" d="M370.88,371.8q-21.57,0-35.43-10.17-13.86-10.35-14.91-29.47H357.2q.53,6.48,3.86,9.47a14,14,0,0,0,16.31.7,8,8,0,0,0,3.16-6.66q0-5.44-5.09-8.42T359,320.59a167,167,0,0,1-19.64-7.72,40.11,40.11,0,0,1-13-11.05q-5.44-7.36-5.44-19.12,0-11.94,6-20.35a36.66,36.66,0,0,1,16.49-13A61.17,61.17,0,0,1,367.2,245q21.57,0,34.38,10.17,13,10,13.86,28.24H378.07c-.11-3.74-1.28-6.54-3.5-8.42a11.94,11.94,0,0,0-8.25-2.8,8.85,8.85,0,0,0-6.31,2.28,9.1,9.1,0,0,0,.17,12.63,30.28,30.28,0,0,0,6.84,4.38q4,1.74,11.93,4.56a133.09,133.09,0,0,1,19.3,8.07,37.06,37.06,0,0,1,13.15,11q5.63,7,5.61,17.89a35.85,35.85,0,0,1-5.61,19.82,37.26,37.26,0,0,1-16,13.85Q385.1,371.8,370.88,371.8Z"/><rect class="cls-8" x="433" y="246.92" width="34.38" height="123.65"/><path class="cls-8" d="M565.89,287.61a19.6,19.6,0,0,0-8.24-7.54,26,26,0,0,0-12.11-2.63q-13,0-20.52,8.42-7.37,8.42-7.37,22.62,0,16,7.9,24.38,8.07,8.25,23.33,8.25,18.06,0,25.78-16.31H540.11V300.06h64.2v33.33a62.12,62.12,0,0,1-11.93,18.42A60.68,60.68,0,0,1,572.73,366a65,65,0,0,1-27.19,5.44q-18.59,0-33-7.89a57.1,57.1,0,0,1-22.1-22.28q-7.71-14.37-7.71-32.78,0-18.24,7.72-32.44a55.43,55.43,0,0,1,22.1-22.28q14.21-8.07,32.8-8.07,23.32,0,38.59,11.23t18.94,30.69Z"/><polygon class="cls-8" points="734.26 370.57 699.88 370.57 654.1 301.47 654.1 370.57 619.72 370.57 619.72 246.92 654.1 246.92 699.88 316.9 699.88 246.92 734.26 246.92 734.26 370.57"/><path class="cls-8" d="M800.5,371.8q-21.57,0-35.43-10.17-13.86-10.35-14.91-29.47h36.66q.52,6.48,3.86,9.47a14,14,0,0,0,16.31.7,8,8,0,0,0,3.16-6.66q0-5.44-5.09-8.42t-16.49-6.66a168.81,168.81,0,0,1-19.64-7.72,40.11,40.11,0,0,1-13-11.05q-5.45-7.36-5.44-19.12,0-11.94,6-20.35a36.66,36.66,0,0,1,16.49-13A61.17,61.17,0,0,1,796.82,245q21.57,0,34.38,10.17,13,10,13.86,28.24H807.73c-.11-3.74-1.28-6.54-3.5-8.42a11.94,11.94,0,0,0-8.25-2.8,8.89,8.89,0,0,0-6.31,2.28,9.1,9.1,0,0,0,.17,12.63,30.28,30.28,0,0,0,6.84,4.38q4,1.74,11.93,4.56a133.09,133.09,0,0,1,19.3,8.07,37.06,37.06,0,0,1,13.15,11q5.63,7,5.62,17.89a35.94,35.94,0,0,1-5.62,19.82,37.26,37.26,0,0,1-16,13.85Q814.72,371.8,800.5,371.8Z"/><polygon class="cls-8" points="180.51 181.14 132.39 181.14 124.68 203.91 91.81 203.91 138.45 75.01 174.81 75.01 221.46 203.91 188.22 203.91 180.51 181.14"/><polygon class="cls-8" points="172.42 156.91 156.45 109.72 140.66 156.91 172.42 156.91"/><polygon class="cls-8" points="350.97 203.91 319.57 203.91 267.05 124.41 267.05 203.91 235.65 203.91 235.65 75.01 267.05 75.01 319.57 154.89 319.57 75.01 350.97 75.01 350.97 203.91"/><path class="cls-8" d="M422,75q20.39,0,35.63,8.08a57,57,0,0,1,23.5,22.77q8.44,14.49,8.45,33.6,0,18.92-8.45,33.61a56.63,56.63,0,0,1-23.69,22.76q-15.24,8.07-35.44,8.08h-48.3V75Z"/><path class="cls-8" d="M420,176.74q17.82,0,27.73-9.73t9.92-27.55q0-17.82-9.92-27.72T420,101.82H405.14v74.92Z"/><path class="cls-8" d="M572.9,203.91l-26.81-48.66h-7.53v48.66h-31.4V75h52.7q15.24,0,25.89,5.33A36.38,36.38,0,0,1,601.91,95a40.15,40.15,0,0,1,5.33,20.56,38.09,38.09,0,0,1-7.35,23q-7.15,10.08-21.3,14.32l29.75,51Z"/><path class="cls-8" d="M538.56,133H558q8.64,0,12.86-4.23,4.41-4.23,4.4-11.93,0-7.35-4.4-11.57-4.23-4.23-12.86-4.22H538.56Z"/><polygon class="cls-8" points="658.35 100.17 658.35 126.24 700.4 126.24 700.4 150.48 658.35 150.48 658.35 178.76 705.91 178.76 705.91 203.91 626.95 203.91 626.95 75.01 705.91 75.01 705.91 100.17 658.35 100.17"/><polygon class="cls-8" points="806.55 181.14 758.43 181.14 750.72 203.91 717.85 203.91 764.49 75.01 800.85 75.01 847.5 203.91 814.26 203.91 806.55 181.14"/><polygon class="cls-8" points="798.47 156.91 782.49 109.72 766.7 156.91 798.47 156.91"/></svg>