<?xml version="1.0" standalone="no"?>
<!DOCTYPE svg PUBLIC "-//W3C//DTD SVG 20010904//EN"
 "http://www.w3.org/TR/2001/REC-SVG-20010904/DTD/svg10.dtd">
<svg class="icon-idk" version="1.0" xmlns="http://www.w3.org/2000/svg"
 width="512.000000pt" height="512.000000pt" viewBox="0 0 512.000000 512.000000"
 preserveAspectRatio="xMidYMid meet">
<metadata>
Created by potrace 1.16, written by Peter Selinger 2001-2019
</metadata>
<g transform="translate(0.000000,512.000000) scale(0.100000,-0.100000)" stroke="none">
<path d="M2390 4650 l0 -40 -255 0 -255 0 0 -45 0 -45 -85 0 -85 0 0 -40 0
-39 -87 -3 -88 -3 -3 -42 -3 -43 -85 0 -84 0 0 -40 0 -40 -40 0 -40 0 0 -45 0
-45 -85 0 -85 0 0 -39 c0 -40 0 -40 -42 -43 -43 -3 -43 -3 -46 -45 -3 -43 -3
-43 -43 -43 l-39 0 0 -45 0 -45 -45 0 -45 0 0 -40 0 -40 -40 0 -40 0 0 -84 0
-85 -42 -3 c-42 -3 -43 -4 -46 -40 -3 -37 -4 -38 -43 -38 l-39 0 0 -90 0 -90
-45 0 -45 0 0 -125 0 -125 -40 0 -40 0 0 -130 0 -130 -45 0 -45 0 0 -470 0
-470 45 0 45 0 0 -130 0 -130 40 0 40 0 0 -125 0 -125 45 0 45 0 0 -85 0 -85
39 0 c40 0 40 0 43 -42 3 -43 3 -43 46 -46 l42 -3 0 -85 0 -84 39 0 c40 0 40
0 43 -42 3 -43 3 -43 45 -46 43 -3 43 -3 43 -43 0 -39 0 -39 40 -39 l40 0 0
-40 0 -40 45 0 45 0 0 -45 0 -45 85 0 85 0 0 -45 0 -45 40 0 40 0 0 -40 0 -40
84 0 85 0 3 -42 3 -43 88 -3 87 -3 0 -39 0 -40 124 0 125 0 3 -42 3 -43 258
-3 257 -2 0 -40 0 -40 85 0 85 0 0 40 0 40 255 0 255 0 0 45 0 45 130 0 130 0
0 40 0 39 83 3 82 3 3 43 3 42 85 0 84 0 0 40 0 40 40 0 40 0 0 45 0 45 90 0
90 0 0 45 0 45 40 0 40 0 0 40 0 40 45 0 45 0 0 40 0 40 40 0 40 0 0 45 0 45
40 0 40 0 0 85 0 85 45 0 45 0 0 45 0 45 45 0 45 0 0 85 0 85 40 0 40 0 0 124
0 125 43 3 42 3 3 127 3 128 39 0 40 0 0 470 0 470 -40 0 -39 0 -3 128 -3 127
-42 3 -43 3 0 125 0 124 -40 0 -39 0 -3 88 -3 87 -42 3 c-43 3 -43 3 -43 43
l0 39 -45 0 -45 0 0 85 0 85 -40 0 -40 0 0 40 0 40 -40 0 -40 0 0 45 0 45 -44
0 -45 0 -3 43 c-3 41 -4 42 -40 45 -37 3 -38 4 -38 43 l0 39 -90 0 -90 0 0 45
0 45 -40 0 -40 0 0 40 0 40 -84 0 -85 0 -3 43 -3 42 -82 3 -83 3 0 39 0 40
-85 0 -85 0 0 45 0 45 -255 0 -255 0 0 40 0 40 -175 0 -175 0 0 -40z m-170
-1280 l0 -40 85 0 85 0 0 -45 0 -45 45 0 45 0 0 -45 0 -45 40 0 40 0 0 -210 0
-210 -40 0 -40 0 0 -45 0 -45 -45 0 -45 0 0 -40 0 -40 45 0 45 0 0 -45 0 -45
40 0 40 0 0 -85 0 -85 40 0 40 0 0 -210 0 -210 -40 0 -40 0 0 -85 0 -85 -40 0
-40 0 0 -45 0 -45 -90 0 -90 0 0 -40 0 -40 -595 0 -595 0 0 935 0 935 555 0
555 0 0 -40z m1540 -170 l0 -130 -385 0 -385 0 0 85 0 85 40 0 40 0 0 45 0 45
345 0 345 0 0 -130z m0 -345 l0 -45 40 0 40 0 0 -40 0 -40 40 0 40 0 0 -45 0
-45 45 0 44 0 3 -82 3 -83 38 -3 37 -3 0 -170 0 -169 -465 0 -465 0 0 -130 0
-130 40 0 40 0 0 -40 0 -40 175 0 175 0 0 40 0 40 40 0 40 0 0 45 0 45 210 0
210 0 0 -39 c0 -39 -1 -40 -37 -43 l-38 -3 -3 -82 -3 -82 -42 -3 c-42 -3 -42
-3 -45 -45 -3 -43 -3 -43 -43 -43 -39 0 -39 0 -39 -40 l0 -40 -385 0 -385 0 0
40 0 40 -79 0 -80 0 -3 43 c-3 42 -3 42 -45 45 l-42 3 -3 82 -3 82 -37 3 -38
3 0 294 0 294 38 3 37 3 3 83 3 82 44 0 45 0 0 45 0 45 40 0 40 0 0 40 0 40
40 0 40 0 0 45 0 45 345 0 345 0 0 -45z"/>
<path d="M1530 2855 l0 -215 305 0 305 0 0 85 0 85 40 0 40 0 0 90 0 90 -40 0
-40 0 0 40 0 40 -305 0 -305 0 0 -215z"/>
<path d="M1535 2377 c-3 -7 -4 -123 -3 -257 l3 -245 300 0 300 0 3 43 c3 42 3
42 43 42 l39 0 0 175 0 175 -39 0 c-39 0 -40 1 -43 38 l-3 37 -298 3 c-235 2
-299 0 -302 -11z"/>
<path d="M3240 2600 l0 -40 -40 0 -40 0 0 -90 0 -90 255 0 255 0 0 90 0 90
-40 0 -40 0 0 40 0 40 -175 0 -175 0 0 -40z"/>
</g>
</svg>
