<?xml version="1.0" standalone="no"?>
<!DOCTYPE svg PUBLIC "-//W3C//DTD SVG 20010904//EN"
 "http://www.w3.org/TR/2001/REC-SVG-20010904/DTD/svg10.dtd">
<svg version="1.0" xmlns="http://www.w3.org/2000/svg"
 width="100.000000pt" height="99.000000pt" viewBox="0 0 100.000000 99.000000"
 preserveAspectRatio="xMidYMid meet">

<g transform="translate(0.000000,99.000000) scale(0.100000,-0.100000)"
fill="#000000" stroke="none">
<path d="M350 965 c0 -23 -3 -25 -50 -25 -47 0 -50 -2 -50 -25 0 -23 -3 -25
-50 -25 -49 0 -50 -1 -50 -30 0 -25 -4 -30 -25 -30 -20 0 -25 -5 -25 -25 0
-20 -5 -25 -25 -25 -24 0 -25 -2 -25 -75 0 -73 -1 -75 -25 -75 l-25 0 0 -135
0 -135 25 0 c24 0 25 -2 25 -75 0 -73 1 -75 25 -75 20 0 25 -5 25 -25 0 -20 5
-25 25 -25 21 0 25 -5 25 -30 0 -29 1 -30 50 -30 47 0 50 -2 50 -25 0 -23 3
-25 50 -25 47 0 50 -2 50 -25 0 -20 5 -25 25 -25 l25 0 0 180 0 180 -50 0 -50
0 0 80 0 80 50 0 50 0 0 80 c0 79 0 80 25 80 23 0 25 3 25 50 l0 50 50 0 c47
0 50 2 50 25 0 24 2 25 75 25 l75 0 0 -75 0 -75 -75 0 -75 0 0 -80 0 -80 75 0
75 0 0 -80 0 -80 -75 0 -75 0 0 -180 0 -180 50 0 c47 0 50 2 50 25 0 23 3 25
50 25 47 0 50 2 50 25 0 23 3 25 50 25 49 0 50 1 50 30 0 25 4 30 25 30 20 0
25 5 25 25 0 20 5 25 25 25 24 0 25 2 25 75 0 73 1 75 25 75 l25 0 0 135 0
135 -25 0 c-24 0 -25 2 -25 75 0 73 -1 75 -25 75 -20 0 -25 5 -25 25 0 20 -5
25 -25 25 -21 0 -25 5 -25 30 0 29 -1 30 -50 30 -47 0 -50 2 -50 25 0 23 -3
25 -50 25 -47 0 -50 2 -50 25 l0 25 -150 0 -150 0 0 -25z"/>
</g>
</svg>
