<?xml version="1.0" standalone="no"?>
<!DOCTYPE svg PUBLIC "-//W3C//DTD SVG 20010904//EN"
 "http://www.w3.org/TR/2001/REC-SVG-20010904/DTD/svg10.dtd">
<svg version="1.0" xmlns="http://www.w3.org/2000/svg"
 width="1792.000000pt" height="1792.000000pt" viewBox="0 0 1792.000000 1792.000000"
 preserveAspectRatio="xMidYMid meet">
<style>
    #github path{
        fill:white;
    }
    
    #github:hover path {
        fill:black;
        cursor:pointer;
    }
</style>
<g id="github" transform="translate(0.000000,1792.000000) scale(0.100000,-0.100000)"
 stroke="none">
<path style="transition: fill 0.5s ease;" d="M6480 16170 l0 -250 -500 0 -500 0 0 -245 0 -245 -500 0 -500 0 0
-250 0 -250 -245 0 -245 0 0 -250 0 -250 -250 0 -250 0 0 -250 0 -250 -250 0
-250 0 0 -245 0 -245 -250 0 -250 0 0 -500 0 -500 -245 0 -245 0 0 -500 0
-500 -250 0 -250 0 0 -2485 0 -2485 250 0 250 0 0 -500 0 -500 245 0 245 0 0
-495 0 -495 250 0 250 0 0 -250 0 -250 250 0 250 0 0 -250 0 -250 250 0 250 0
0 -250 0 -250 245 0 245 0 0 -250 0 -250 500 0 500 0 0 -245 0 -245 500 0 500
0 0 -250 0 -250 245 0 245 0 0 995 0 995 -995 0 -995 0 0 250 0 250 -250 0
-250 0 0 495 0 495 -245 0 -245 0 0 250 0 250 495 0 495 0 0 -495 0 -495 500
0 500 0 0 -250 0 -250 250 0 250 0 0 250 0 250 245 0 245 0 0 245 0 245 250 0
250 0 0 250 0 250 -495 0 -495 0 0 250 0 250 -500 0 -500 0 0 250 0 250 -250
0 -250 0 0 245 0 245 -250 0 -250 0 0 500 0 500 -245 0 -245 0 0 1245 0 1245
245 0 245 0 0 495 0 495 250 0 250 0 0 250 0 250 -250 0 -250 0 0 500 0 500
250 0 250 0 0 250 0 250 500 0 500 0 0 -250 0 -250 2985 0 2985 0 0 250 0 250
500 0 500 0 0 -250 0 -250 245 0 245 0 0 -500 0 -500 -245 0 -245 0 0 -250 0
-250 245 0 245 0 0 -495 0 -495 250 0 250 0 0 -1245 0 -1245 -250 0 -250 0 0
-500 0 -500 -245 0 -245 0 0 -245 0 -245 -250 0 -250 0 0 -250 0 -250 -500 0
-500 0 0 -250 0 -250 -495 0 -495 0 0 -250 0 -250 250 0 250 0 0 -1740 0
-1740 245 0 245 0 0 250 0 250 750 0 750 0 0 245 0 245 245 0 245 0 0 250 0
250 250 0 250 0 0 250 0 250 250 0 250 0 0 250 0 250 250 0 250 0 0 250 0 250
250 0 250 0 0 495 0 495 245 0 245 0 0 500 0 500 250 0 250 0 0 2485 0 2485
-250 0 -250 0 0 500 0 500 -245 0 -245 0 0 500 0 500 -250 0 -250 0 0 245 0
245 -250 0 -250 0 0 250 0 250 -250 0 -250 0 0 250 0 250 -250 0 -250 0 0 250
0 250 -495 0 -495 0 0 245 0 245 -500 0 -500 0 0 250 0 250 -2485 0 -2485 0 0
-250z m-2490 -10450 l0 -250 -250 0 -250 0 0 250 0 250 250 0 250 0 0 -250z"/>
</g>
</svg>
