<?xml version="1.0" standalone="no"?>
<!DOCTYPE svg PUBLIC "-//W3C//DTD SVG 20010904//EN"
 "http://www.w3.org/TR/2001/REC-SVG-20010904/DTD/svg10.dtd">
<svg version="1.0" xmlns="http://www.w3.org/2000/svg"
 width="50.000000pt" height="50.000000pt" viewBox="0 0 50.000000 50.000000"
 preserveAspectRatio="xMidYMid meet">
<style>
    #github path{
        fill:white;
    }
    
    #github:hover path {
        fill:black;
        cursor:pointer;
    }
</style>
<g id="github" transform="translate(0.000000,50.000000) scale(0.100000,-0.100000)"
fill="#000000" stroke="none">
<path style="transition: fill 0.5s ease;" d="M224 465 c-4 -9 -19 -15 -40 -15 -19 0 -34 -4 -34 -10 0 -5 -11 -10
-25 -10 -16 0 -25 -6 -25 -15 0 -8 -7 -15 -15 -15 -9 0 -15 -9 -15 -25 0 -14
-4 -25 -10 -25 -5 0 -10 -15 -10 -34 0 -21 -6 -36 -15 -40 -8 -3 -15 -15 -15
-26 0 -11 7 -23 15 -26 9 -4 15 -19 15 -40 0 -19 5 -34 10 -34 6 0 10 -11 10
-25 0 -16 6 -25 15 -25 8 0 15 -7 15 -15 0 -9 9 -15 25 -15 14 0 25 -4 25 -10
0 -5 11 -10 25 -10 20 0 25 5 25 25 0 22 -4 25 -35 25 -19 0 -35 5 -35 10 0 6
16 10 35 10 19 0 35 5 35 11 0 7 -16 26 -35 45 -34 32 -35 34 -35 113 0 74 2
81 20 81 11 0 20 -4 20 -10 0 -6 33 -10 80 -10 47 0 80 4 80 10 0 6 9 10 20
10 18 0 20 -7 20 -81 0 -79 -1 -81 -35 -113 -30 -29 -35 -40 -35 -80 0 -42 2
-46 25 -46 14 0 25 5 25 10 0 6 11 10 25 10 16 0 25 6 25 15 0 8 7 15 15 15 9
0 15 9 15 25 0 14 5 25 10 25 6 0 10 15 10 34 0 21 6 36 15 40 8 3 15 15 15
26 0 11 -7 23 -15 26 -9 4 -15 19 -15 40 0 19 -4 34 -10 34 -5 0 -10 11 -10
25 0 16 -6 25 -15 25 -8 0 -15 7 -15 15 0 9 -9 15 -25 15 -14 0 -25 5 -25 10
0 6 -15 10 -34 10 -21 0 -36 6 -40 15 -3 8 -15 15 -26 15 -11 0 -23 -7 -26
-15z"/>
</g>
</svg>
