<?xml version="1.0" standalone="no"?>
<!DOCTYPE svg PUBLIC "-//W3C//DTD SVG 20010904//EN"
 "http://www.w3.org/TR/2001/REC-SVG-20010904/DTD/svg10.dtd">
<svg version="1.0" xmlns="http://www.w3.org/2000/svg"
 width="100.000000pt" height="100.000000pt" viewBox="0 0 100.000000 100.000000"
 preserveAspectRatio="xMidYMid meet">

<g transform="translate(0.000000,100.000000) scale(0.100000,-0.100000)"
fill="#000000" stroke="none">
<path d="M310 970 l0 -30 -60 0 -60 0 0 -35 c0 -33 -2 -35 -35 -35 -32 0 -35
-2 -35 -30 0 -27 -3 -30 -30 -30 l-30 0 0 -60 0 -60 -30 0 -30 0 0 -190 0
-190 30 0 30 0 0 -60 0 -60 30 0 c28 0 30 -3 30 -35 0 -33 2 -35 35 -35 32 0
35 -2 35 -30 l0 -30 60 0 60 0 0 -30 0 -30 190 0 190 0 0 30 0 30 60 0 60 0 0
30 c0 27 3 30 30 30 28 0 30 3 30 35 0 33 2 35 35 35 l35 0 0 60 0 60 30 0 30
0 0 190 0 190 -30 0 -30 0 0 60 0 60 -35 0 c-32 0 -35 2 -35 30 0 27 -3 30
-30 30 -28 0 -30 3 -30 35 l0 35 -60 0 -60 0 0 30 0 30 -190 0 -190 0 0 -30z
m440 -190 c0 -27 3 -30 30 -30 l30 0 0 -250 0 -250 -30 0 c-27 0 -30 -3 -30
-30 l0 -30 -250 0 -250 0 0 30 c0 27 -3 30 -30 30 l-30 0 0 280 0 280 280 0
280 0 0 -30z"/>
<path d="M620 685 l0 -65 65 0 65 0 0 65 0 65 -65 0 -65 0 0 -65z"/>
<path d="M440 590 c0 -28 -3 -30 -35 -30 l-35 0 0 -60 0 -60 -30 0 -30 0 0 60
0 60 -30 0 -30 0 0 -155 0 -155 250 0 250 0 0 155 0 155 -30 0 -30 0 0 -60 0
-60 -35 0 -35 0 0 60 0 60 -30 0 c-27 0 -30 3 -30 30 l0 30 -60 0 -60 0 0 -30z
m0 -185 l0 -35 60 0 60 0 0 35 c0 32 2 35 30 35 28 0 30 -3 30 -35 0 -32 -2
-35 -30 -35 -27 0 -30 -3 -30 -30 l0 -30 -60 0 -60 0 0 30 c0 28 -3 30 -35 30
-33 0 -35 2 -35 35 0 33 2 35 35 35 33 0 35 -2 35 -35z"/>
</g>
</svg>
