<?xml version="1.0" standalone="no"?>
<!DOCTYPE svg PUBLIC "-//W3C//DTD SVG 20010904//EN"
 "http://www.w3.org/TR/2001/REC-SVG-20010904/DTD/svg10.dtd">
<svg version="1.0" xmlns="http://www.w3.org/2000/svg"
 width="100.000000pt" height="100.000000pt" viewBox="0 0 100.000000 100.000000"
 preserveAspectRatio="xMidYMid meet">
<metadata>
Created by potrace 1.16, written by Peter Selinger 2001-2019
</metadata>
<g transform="translate(0.000000,100.000000) scale(0.100000,-0.100000)"
fill="#ffffff" stroke="none">
<path d="M350 875 c0 -23 -3 -25 -50 -25 -47 0 -50 -2 -50 -25 0 -20 -5 -25
-25 -25 -20 0 -25 -5 -25 -25 0 -20 -5 -25 -25 -25 -20 0 -25 -5 -25 -25 0
-20 -5 -25 -25 -25 -24 0 -25 -2 -25 -75 0 -73 -1 -75 -25 -75 -24 0 -25 -2
-25 -75 0 -73 1 -75 25 -75 24 0 25 -2 25 -75 0 -73 1 -75 25 -75 20 0 25 -5
25 -25 0 -20 5 -25 25 -25 20 0 25 -5 25 -25 0 -20 5 -25 25 -25 20 0 25 -5
25 -25 0 -23 3 -25 50 -25 l50 0 0 125 0 125 25 0 25 0 0 125 0 125 50 0 50 0
0 -150 0 -150 50 0 c47 0 50 2 50 25 0 20 5 25 25 25 20 0 25 5 25 25 0 20 5
25 25 25 l25 0 0 100 0 100 -25 0 c-20 0 -25 5 -25 25 0 20 -5 25 -25 25 -20
0 -25 5 -25 25 l0 25 -100 0 -100 0 0 -25 c0 -20 -5 -25 -25 -25 -20 0 -25 -5
-25 -25 0 -20 -5 -25 -25 -25 l-25 0 0 -100 0 -100 25 0 c20 0 25 -5 25 -25 0
-23 -3 -25 -50 -25 -47 0 -50 2 -50 25 0 20 -5 25 -25 25 l-25 0 0 100 0 100
25 0 c20 0 25 5 25 25 0 20 5 25 25 25 20 0 25 5 25 25 0 20 5 25 25 25 20 0
25 5 25 25 l0 25 150 0 150 0 0 -25 c0 -20 5 -25 25 -25 20 0 25 -5 25 -25 0
-20 5 -25 25 -25 20 0 25 -5 25 -25 0 -20 5 -25 25 -25 l25 0 0 -100 0 -100
-25 0 c-23 0 -25 -3 -25 -50 0 -47 -2 -50 -25 -50 -20 0 -25 -5 -25 -25 0 -23
-3 -25 -50 -25 -47 0 -50 -2 -50 -25 0 -23 -3 -25 -50 -25 -47 0 -50 2 -50 25
0 20 -5 25 -25 25 -20 0 -25 -5 -25 -25 0 -20 -5 -25 -25 -25 -24 0 -25 -2
-25 -75 l0 -75 125 0 125 0 0 25 c0 23 3 25 50 25 47 0 50 2 50 25 0 20 5 25
25 25 20 0 25 5 25 25 0 20 5 25 25 25 20 0 25 5 25 25 0 20 5 25 25 25 24 0
25 2 25 75 0 73 1 75 25 75 24 0 25 2 25 75 0 73 -1 75 -25 75 -24 0 -25 2
-25 75 0 73 -1 75 -25 75 -20 0 -25 5 -25 25 0 20 -5 25 -25 25 -20 0 -25 5
-25 25 0 20 -5 25 -25 25 -20 0 -25 5 -25 25 0 23 -3 25 -50 25 -47 0 -50 2
-50 25 l0 25 -150 0 -150 0 0 -25z"/>
</g>
</svg>
